<?xml version="1.0" encoding="UTF-8" standalone="no"?>
<svg
   xmlns:dc="http://purl.org/dc/elements/1.1/"
   xmlns:cc="http://creativecommons.org/ns#"
   xmlns:rdf="http://www.w3.org/1999/02/22-rdf-syntax-ns#"
   xmlns:svg="http://www.w3.org/2000/svg"
   xmlns="http://www.w3.org/2000/svg"
   width="192"
   height="192"
   viewBox="0 0 50.799999 50.800001"
   version="1.1"
   id="svg8">
  <defs
     id="defs2" />
  <metadata
     id="metadata5">
    <rdf:RDF>
      <cc:Work
         rdf:about="">
        <dc:format>image/svg+xml</dc:format>
        <dc:type
           rdf:resource="http://purl.org/dc/dcmitype/StillImage" />
        <dc:title></dc:title>
      </cc:Work>
    </rdf:RDF>
  </metadata>
  <g
     id="layer1"
     transform="translate(0,-246.19998)">
    <rect
       ry="2.6458287"
       rx="2.6458287"
       style="opacity:1;vector-effect:none;fill:#424242;fill-opacity:1;stroke:none;stroke-width:0.60367566;stroke-linecap:round;stroke-linejoin:miter;stroke-miterlimit:4;stroke-dasharray:none;stroke-dashoffset:0;stroke-opacity:1"
       id="rect4736"
       width="50.799999"
       height="50.799999"
       x="3.8146973e-07"
       y="246.19998" />
    <path
       id="path217"
       d="M 47.65467,289.40372 H 3.1453276 c -0.819714,0 -1.4836449,0.66393 -1.4836449,1.48364 v 2.96729 c 0,0.81971 0.6639309,1.48365 1.4836449,1.48365 H 47.65467 c 0.819715,0 1.483647,-0.66394 1.483647,-1.48365 v -2.96729 c 0,-0.81971 -0.663932,-1.48364 -1.483647,-1.48364 z M 43.203735,265.6654 c 0,-9.83286 -7.97088,-17.80374 -17.803736,-17.80374 -9.832856,0 -17.8037368,7.97088 -17.8037368,17.80374 v 20.77103 H 43.203735 Z m -8.901868,-0.74182 c 0,0.81971 -0.663931,1.48364 -1.483645,1.48364 h -5.192756 v 11.86916 c 0,0.81971 -0.663931,1.48365 -1.483645,1.48365 h -1.483644 c -0.819714,0 -1.483645,-0.66394 -1.483645,-1.48365 v -11.86916 h -5.192757 c -0.819713,0 -1.483645,-0.66393 -1.483645,-1.48364 v -1.48365 c 0,-0.81971 0.663932,-1.48364 1.483645,-1.48364 h 5.192757 v -4.45094 c 0,-0.81971 0.663932,-1.48364 1.483645,-1.48364 h 1.483644 c 0.819714,0 1.483645,0.66393 1.483645,1.48364 v 4.45094 h 5.192756 c 0.819714,0 1.483645,0.66393 1.483645,1.48364 z"
       style="fill:#ffca28;fill-opacity:1;stroke-width:0.0927278" />
  </g>
</svg>
